# xmcd
#
# Track frame offsets:
#	150
#	18337
#	42747
#	90092
#	119392
#	147707
#	170610
#	192540
#	217840
#	253420
#	272510
#
# Disc length: 3971 seconds
# Revision: 0
# Processed by: cddbd v1.5.2PL0 Copyright (c) Steve Scherf et al.
# Submitted via: dBpowerAMP V12.0
#
DISCID=a30f810b
DTITLE=Various Artist - List Do R. Na 12 Głosów
DYEAR=1995
DGENRE=Blues/Rock
TTITLE0=Dżem - Ballada o Dziwnym Malarzu [Instrumentalnie]
TTITLE1=Dżem and Andrzej Zeńczewski - Dzień w Którym Pękło Niebo
TTITLE2=Dżem and Andrzej Zeńczewski - Naiwne Pytania
TTITLE3=Dżem and Jarosław Wajk - Tylko Ja i Ty
TTITLE4=Dżem and Jarosław Wajk - Wehikuł Czasu - To Byłby Cud
TTITLE5=Dżem and Jerzy Durał - Boże Daj Dom
TTITLE6=Dżem and Jerzy Durał - Wokół Sami Lunatycy
TTITLE7=Dżem and Martyna Jakubowicz - Mała Aleja Róż
TTITLE8=Dżem and Martyna Jakubowicz - Skazany Na Bluesa
TTITLE9=Dżem and Wojciech Waglewski - Kiepska Gra [Instrumentalna]
TTITLE10=Dżem and Wojciech Waglewski - Kim Jestem, Jestem Sobie
EXTD=
EXTT0=
EXTT1=
EXTT2=
EXTT3=
EXTT4=
EXTT5=
EXTT6=
EXTT7=
EXTT8=
EXTT9=
EXTT10=
PLAYORDER=
